<?xml version="1.0" encoding="UTF-8" standalone="no"?>
<!DOCTYPE svg PUBLIC "-//W3C//DTD SVG 1.1//EN"
 "http://www.w3.org/Graphics/SVG/1.1/DTD/svg11.dtd">
<!-- Generated by graphviz version 2.43.0 (0)
 -->
<!-- Title: Flowchart Pages: 1 -->
<svg width="352pt" height="776pt"
 viewBox="0.00 0.00 352.00 776.25" xmlns="http://www.w3.org/2000/svg" xmlns:xlink="http://www.w3.org/1999/xlink">
<g id="graph0" class="graph" transform="scale(1 1) rotate(0) translate(4 772.25)">
<title>Flowchart</title>
<polygon fill="white" stroke="transparent" points="-4,4 -4,-772.25 348,-772.25 348,4 -4,4"/>
<text text-anchor="middle" x="172" y="-753.05" font-family="Helvetica,sans-Serif" font-weight="bold" font-size="14.00">Figure 3.2 &#160;System Processing Flowchart</text>
<!-- Start -->
<g id="node1" class="node">
<title>Start</title>
<ellipse fill="#d0e8d0" stroke="black" stroke-width="1.2" cx="210" cy="-722.63" rx="105.22" ry="22.76"/>
<text text-anchor="middle" x="210" y="-725.83" font-family="Helvetica,sans-Serif" font-size="11.00">Start:</text>
<text text-anchor="middle" x="210" y="-713.83" font-family="Helvetica,sans-Serif" font-size="11.00">Transfer event detected</text>
</g>
<!-- Classify -->
<g id="node2" class="node">
<title>Classify</title>
<path fill="#d9ead3" stroke="black" stroke-width="1.2" d="M285.5,-663C285.5,-663 134.5,-663 134.5,-663 128.5,-663 122.5,-657 122.5,-651 122.5,-651 122.5,-639 122.5,-639 122.5,-633 128.5,-627 134.5,-627 134.5,-627 285.5,-627 285.5,-627 291.5,-627 297.5,-633 297.5,-639 297.5,-639 297.5,-651 297.5,-651 297.5,-657 291.5,-663 285.5,-663"/>
<text text-anchor="middle" x="210" y="-648.2" font-family="Helvetica,sans-Serif" font-size="11.00">Classify content</text>
<text text-anchor="middle" x="210" y="-636.2" font-family="Helvetica,sans-Serif" font-size="11.00">(TF&#45;IDF + Gradient Boosting)</text>
</g>
<!-- Start&#45;&gt;Classify -->
<g id="edge1" class="edge">
<title>Start&#45;&gt;Classify</title>
<path fill="none" stroke="#555555" d="M210,-699.75C210,-691.44 210,-681.87 210,-673.13"/>
<polygon fill="#555555" stroke="#555555" points="213.5,-673.02 210,-663.02 206.5,-673.02 213.5,-673.02"/>
</g>
<!-- CheckBehavior -->
<g id="node3" class="node">
<title>CheckBehavior</title>
<path fill="#d9ead3" stroke="black" stroke-width="1.2" d="M268.5,-590C268.5,-590 151.5,-590 151.5,-590 145.5,-590 139.5,-584 139.5,-578 139.5,-578 139.5,-558 139.5,-558 139.5,-552 145.5,-546 151.5,-546 151.5,-546 268.5,-546 268.5,-546 274.5,-546 280.5,-552 280.5,-558 280.5,-558 280.5,-578 280.5,-578 280.5,-584 274.5,-590 268.5,-590"/>
<text text-anchor="middle" x="210" y="-577.2" font-family="Helvetica,sans-Serif" font-size="11.00">Check transfer volume</text>
<text text-anchor="middle" x="210" y="-565.2" font-family="Helvetica,sans-Serif" font-size="11.00">against user baseline</text>
<text text-anchor="middle" x="210" y="-553.2" font-family="Helvetica,sans-Serif" font-size="11.00">(z&#45;score)</text>
</g>
<!-- Classify&#45;&gt;CheckBehavior -->
<g id="edge2" class="edge">
<title>Classify&#45;&gt;CheckBehavior</title>
<path fill="none" stroke="#555555" d="M210,-626.98C210,-619.15 210,-609.61 210,-600.54"/>
<polygon fill="#555555" stroke="#555555" points="213.5,-600.24 210,-590.24 206.5,-600.24 213.5,-600.24"/>
</g>
<!-- D1 -->
<g id="node4" class="node">
<title>D1</title>
<polygon fill="#fde9a4" stroke="black" stroke-width="1.2" points="210,-509 76,-477 210,-445 344,-477 210,-509"/>
<text text-anchor="middle" x="210" y="-480.2" font-family="Helvetica,sans-Serif" font-size="11.00">Content sensitive</text>
<text text-anchor="middle" x="210" y="-468.2" font-family="Helvetica,sans-Serif" font-size="11.00">(Restricted/Internal)?</text>
</g>
<!-- CheckBehavior&#45;&gt;D1 -->
<g id="edge3" class="edge">
<title>CheckBehavior&#45;&gt;D1</title>
<path fill="none" stroke="#555555" d="M210,-545.91C210,-537.92 210,-528.52 210,-519.3"/>
<polygon fill="#555555" stroke="#555555" points="213.5,-519.06 210,-509.06 206.5,-519.06 213.5,-519.06"/>
</g>
<!-- D2 -->
<g id="node5" class="node">
<title>D2</title>
<polygon fill="#f4cccc" stroke="black" stroke-width="1.2" points="128,-398 0,-354 128,-310 256,-354 128,-398"/>
<text text-anchor="middle" x="128" y="-363.2" font-family="Helvetica,sans-Serif" font-size="11.00">External destination</text>
<text text-anchor="middle" x="128" y="-351.2" font-family="Helvetica,sans-Serif" font-size="11.00">OR anomalous</text>
<text text-anchor="middle" x="128" y="-339.2" font-family="Helvetica,sans-Serif" font-size="11.00">volume?</text>
</g>
<!-- D1&#45;&gt;D2 -->
<g id="edge4" class="edge">
<title>D1&#45;&gt;D2</title>
<path fill="none" stroke="#555555" d="M191.8,-449.15C181.76,-434.32 169.03,-415.55 157.6,-398.68"/>
<polygon fill="#555555" stroke="#555555" points="160.26,-396.37 151.76,-390.05 154.47,-400.3 160.26,-396.37"/>
<text text-anchor="middle" x="184" y="-419" font-family="Helvetica,sans-Serif" font-size="10.00">Yes</text>
</g>
<!-- Allow -->
<g id="node7" class="node">
<title>Allow</title>
<path fill="#d0e8d0" stroke="black" stroke-width="1.2" d="M313,-263C313,-263 233,-263 233,-263 227,-263 221,-257 221,-251 221,-251 221,-239 221,-239 221,-233 227,-227 233,-227 233,-227 313,-227 313,-227 319,-227 325,-233 325,-239 325,-239 325,-251 325,-251 325,-257 319,-263 313,-263"/>
<text text-anchor="middle" x="273" y="-242.2" font-family="Helvetica,sans-Serif" font-size="11.00">ALLOW transfer</text>
</g>
<!-- D1&#45;&gt;Allow -->
<g id="edge5" class="edge">
<title>D1&#45;&gt;Allow</title>
<path fill="none" stroke="#555555" d="M233.71,-450.31C245.37,-436.02 258.33,-417.26 265,-398 279.39,-356.45 278.45,-304.7 276.03,-273.57"/>
<polygon fill="#555555" stroke="#555555" points="279.51,-273.11 275.14,-263.46 272.54,-273.73 279.51,-273.11"/>
<text text-anchor="middle" x="284" y="-351.5" font-family="Helvetica,sans-Serif" font-size="10.00">No</text>
</g>
<!-- Block -->
<g id="node6" class="node">
<title>Block</title>
<path fill="#f4b6b6" stroke="black" stroke-width="1.2" d="M191,-263C191,-263 65,-263 65,-263 59,-263 53,-257 53,-251 53,-251 53,-239 53,-239 53,-233 59,-227 65,-227 65,-227 191,-227 191,-227 197,-227 203,-233 203,-239 203,-239 203,-251 203,-251 203,-257 197,-263 191,-263"/>
<text text-anchor="middle" x="128" y="-248.2" font-family="Helvetica,sans-Serif" font-size="11.00">BLOCK / ALERT</text>
<text text-anchor="middle" x="128" y="-236.2" font-family="Helvetica,sans-Serif" font-size="11.00">(hybrid signal triggered)</text>
</g>
<!-- D2&#45;&gt;Block -->
<g id="edge6" class="edge">
<title>D2&#45;&gt;Block</title>
<path fill="none" stroke="#555555" d="M128,-309.79C128,-297.52 128,-284.5 128,-273.45"/>
<polygon fill="#555555" stroke="#555555" points="131.5,-273.15 128,-263.15 124.5,-273.15 131.5,-273.15"/>
<text text-anchor="middle" x="136" y="-284" font-family="Helvetica,sans-Serif" font-size="10.00">Yes</text>
</g>
<!-- D2&#45;&gt;Allow -->
<g id="edge7" class="edge">
<title>D2&#45;&gt;Allow</title>
<path fill="none" stroke="#555555" d="M168.01,-323.48C191.24,-306.33 220.09,-285.04 241.67,-269.12"/>
<polygon fill="#555555" stroke="#555555" points="243.88,-271.84 249.85,-263.08 239.72,-266.21 243.88,-271.84"/>
<text text-anchor="middle" x="228" y="-284" font-family="Helvetica,sans-Serif" font-size="10.00">No</text>
</g>
<!-- Log -->
<g id="node8" class="node">
<title>Log</title>
<path fill="#cfe2f3" stroke="black" stroke-width="1.2" d="M237,-190C237,-190 163,-190 163,-190 157,-190 151,-184 151,-178 151,-178 151,-166 151,-166 151,-160 157,-154 163,-154 163,-154 237,-154 237,-154 243,-154 249,-160 249,-166 249,-166 249,-178 249,-178 249,-184 243,-190 237,-190"/>
<text text-anchor="middle" x="200" y="-175.2" font-family="Helvetica,sans-Serif" font-size="11.00">Log decision +</text>
<text text-anchor="middle" x="200" y="-163.2" font-family="Helvetica,sans-Serif" font-size="11.00">reason</text>
</g>
<!-- Block&#45;&gt;Log -->
<g id="edge8" class="edge">
<title>Block&#45;&gt;Log</title>
<path fill="none" stroke="#555555" d="M145.43,-226.81C154.45,-217.92 165.61,-206.91 175.49,-197.17"/>
<polygon fill="#555555" stroke="#555555" points="178.07,-199.54 182.73,-190.03 173.15,-194.56 178.07,-199.54"/>
</g>
<!-- Allow&#45;&gt;Log -->
<g id="edge9" class="edge">
<title>Allow&#45;&gt;Log</title>
<path fill="none" stroke="#555555" d="M255.33,-226.81C246.18,-217.92 234.86,-206.91 224.85,-197.17"/>
<polygon fill="#555555" stroke="#555555" points="227.12,-194.49 217.51,-190.03 222.24,-199.51 227.12,-194.49"/>
</g>
<!-- Refine -->
<g id="node9" class="node">
<title>Refine</title>
<path fill="#cfe2f3" stroke="black" stroke-width="1.2" d="M261.5,-117C261.5,-117 138.5,-117 138.5,-117 132.5,-117 126.5,-111 126.5,-105 126.5,-105 126.5,-85 126.5,-85 126.5,-79 132.5,-73 138.5,-73 138.5,-73 261.5,-73 261.5,-73 267.5,-73 273.5,-79 273.5,-85 273.5,-85 273.5,-105 273.5,-105 273.5,-111 267.5,-117 261.5,-117"/>
<text text-anchor="middle" x="200" y="-104.2" font-family="Helvetica,sans-Serif" font-size="11.00">Feed results into</text>
<text text-anchor="middle" x="200" y="-92.2" font-family="Helvetica,sans-Serif" font-size="11.00">model refinement</text>
<text text-anchor="middle" x="200" y="-80.2" font-family="Helvetica,sans-Serif" font-size="11.00">(continuous evaluation)</text>
</g>
<!-- Log&#45;&gt;Refine -->
<g id="edge10" class="edge">
<title>Log&#45;&gt;Refine</title>
<path fill="none" stroke="#555555" d="M200,-153.98C200,-146.15 200,-136.61 200,-127.54"/>
<polygon fill="#555555" stroke="#555555" points="203.5,-127.24 200,-117.24 196.5,-127.24 203.5,-127.24"/>
</g>
<!-- End -->
<g id="node10" class="node">
<title>End</title>
<ellipse fill="#d0e8d0" stroke="black" stroke-width="1.2" cx="200" cy="-18" rx="27" ry="18"/>
<text text-anchor="middle" x="200" y="-15.2" font-family="Helvetica,sans-Serif" font-size="11.00">End</text>
</g>
<!-- Refine&#45;&gt;End -->
<g id="edge11" class="edge">
<title>Refine&#45;&gt;End</title>
<path fill="none" stroke="#555555" d="M200,-72.71C200,-64.46 200,-54.91 200,-46.17"/>
<polygon fill="#555555" stroke="#555555" points="203.5,-46.06 200,-36.06 196.5,-46.06 203.5,-46.06"/>
</g>
</g>
</svg>
